<svg width="20" height="20" viewBox="0 0 20 20" fill="none" xmlns="http://www.w3.org/2000/svg">
<path d="M12.5417 4.16671C13.3556 4.32551 14.1037 4.72359 14.6901 5.30999C15.2765 5.89639 15.6745 6.64443 15.8333 7.45837M12.5417 0.833374C14.2327 1.02124 15.8097 1.77852 17.0135 2.98088C18.2174 4.18324 18.9767 5.75922 19.1667 7.45004M18.3333 14.1V16.6C18.3343 16.8321 18.2867 17.0618 18.1938 17.2745C18.1008 17.4871 17.9644 17.678 17.7934 17.8349C17.6224 17.9918 17.4205 18.1113 17.2006 18.1856C16.9808 18.26 16.7478 18.2876 16.5167 18.2667C13.9524 17.9881 11.4892 17.1118 9.325 15.7084C7.31152 14.4289 5.60445 12.7219 4.325 10.7084C2.91665 8.53438 2.0402 6.0592 1.76667 3.48337C1.74584 3.25293 1.77323 3.02067 1.84708 2.80139C1.92094 2.58211 2.03964 2.38061 2.19564 2.20972C2.35163 2.03883 2.5415 1.9023 2.75316 1.80881C2.96481 1.71532 3.19362 1.66693 3.425 1.66671H5.925C6.32942 1.66273 6.72149 1.80594 7.02814 2.06965C7.33478 2.33336 7.53506 2.69958 7.59167 3.10004C7.69719 3.9001 7.89288 4.68565 8.175 5.44171C8.28712 5.73998 8.31139 6.06414 8.24492 6.37577C8.17846 6.68741 8.02405 6.97347 7.8 7.20004L6.74167 8.25837C7.92796 10.3447 9.65538 12.0721 11.7417 13.2584L12.8 12.2C13.0266 11.976 13.3126 11.8216 13.6243 11.7551C13.9359 11.6887 14.2601 11.7129 14.5583 11.825C15.3144 12.1072 16.0999 12.3029 16.9 12.4084C17.3048 12.4655 17.6745 12.6694 17.9388 12.9813C18.2031 13.2932 18.3435 13.6914 18.3333 14.1Z" stroke="#EDC653" stroke-width="1.2" stroke-linecap="round" stroke-linejoin="round"/>
</svg>
