<?xml version="1.0" encoding="UTF-8"?>
<!DOCTYPE svg PUBLIC "-//W3C//DTD SVG 1.1//EN" "http://www.w3.org/Graphics/SVG/1.1/DTD/svg11.dtd">
<!-- Creator: CorelDRAW -->
<svg xmlns="http://www.w3.org/2000/svg" xml:space="preserve" width="2.64459in" height="0.631736in" version="1.1" style="shape-rendering:geometricPrecision; text-rendering:geometricPrecision; image-rendering:optimizeQuality; fill-rule:evenodd; clip-rule:evenodd"
viewBox="0 0 12579.06 3004.87"
 xmlns:xlink="http://www.w3.org/1999/xlink"
 xmlns:xodm="http://www.corel.com/coreldraw/odm/2003">
 <defs>
  <style type="text/css">
   <![CDATA[
    .fil0 {fill:#EDC653}
    .fil1 {fill:#4D4D4D;fill-rule:nonzero}
   ]]>
  </style>
 </defs>
 <g id="Layer_x0020_1">
  <metadata id="CorelCorpID_0Corel-Layer"/>
  <g id="_1784454278032">
   <path class="fil0" d="M1395.2 1590.83l195.64 0 0 -650.43 -650.43 0 0 1105.18 454.79 -454.75zm-32.06 514.27l-468.5 0 0 -1668.64 1200.14 0 0 1200.14 -653.82 0 0 390.67 1044.49 0 0 -1981.5 -1981.49 0 0 2455.13 859.17 0 0 -395.8zm-898.1 -2105.1l2066.2 0 0 2073.04 -458.2 458.2 -664.13 0 0 15.45 -458.16 458.18 -950.74 0 0 -2546.67 458.18 -458.2 6.85 0z"/>
   <path class="fil1" d="M3087.81 1789.18l350.32 0 0 -510.47 545.5 0c357.84,0 690.65,-267.75 690.65,-620.58 0,-372.84 -315.3,-620.58 -690.65,-620.58l-895.82 0 0 1751.62zm1236.13 -1131.04c0,165.15 -147.64,292.77 -340.32,292.77l-545.5 0 0 -590.54 545.5 0c195.19,0 340.32,125.11 340.32,297.77zm1523.92 -157.64c-267.75,0 -475.45,140.13 -590.56,362.83l-37.53 -325.3 -312.79 0 0 1251.15 350.32 0 0 -355.33c0,-350.32 217.71,-563.01 590.56,-563.01l0 -370.33zm242.71 -340.32c0,100.09 65.06,162.64 165.15,162.64 95.09,0 160.15,-62.55 160.15,-162.64 0,-92.58 -65.06,-160.15 -160.15,-160.15 -100.09,0 -165.15,67.57 -165.15,160.15zm340.32 1629l0 -1251.15 -350.32 0 0 1251.15 350.32 0zm335.3 -900.84l670.63 0 -705.65 623.09 0 277.75 1251.15 0 0 -350.32 -725.67 0 688.12 -623.09 0 -277.75 -1178.59 0 0 350.32zm1856.71 317.81c0,-225.22 142.64,-382.86 352.83,-382.86 210.2,0 357.84,157.64 357.84,382.86l0 583.03 350.32 0 0 -583.03c0,-225.22 142.62,-382.86 352.83,-382.86 210.19,0 357.83,157.64 357.83,382.86l0 583.03 350.32 0 0 -583.03c0,-417.9 -257.73,-705.65 -618.07,-705.65 -230.2,0 -417.88,137.62 -515.47,355.32 -100.09,-220.2 -297.77,-355.32 -545.5,-355.32 -185.17,0 -342.83,90.07 -447.92,235.2l-32.53 -197.68 -312.79 0 0 1251.15 350.32 0 0 -583.03zm3956.16 583.03l0 -1251.15 -310.3 0 -35.02 165.15c-127.62,-130.11 -312.79,-202.68 -522.99,-202.68 -417.88,0 -728.16,282.75 -728.16,665.61 0,377.84 312.79,660.6 728.16,660.6 212.7,0 395.37,-75.06 522.99,-202.68l35.02 165.15 310.3 0zm-1246.15 -623.07c0,-207.7 190.17,-357.84 452.92,-357.84 262.73,0 442.9,147.64 442.9,357.84 0,207.68 -177.66,350.32 -442.9,350.32 -262.75,0 -452.92,-147.64 -452.92,-350.32l0 0z"/>
   <path class="fil1" d="M5221.71 2687.83l237.66 0c132.83,0 259.9,-108.41 259.9,-252.02 0,-148.61 -119.91,-250.58 -259.9,-250.58l-237.66 0 0 502.6zm397.04 -252.02c0,91.2 -68.2,155.8 -159.38,155.8l-137.13 0 0 -310.17 137.13 0c91.89,0 159.38,63.18 159.38,154.36zm572.24 97.66c1.44,-7.9 1.44,-16.52 1.44,-24.42 0,-114.16 -91.91,-190.99 -214.68,-190.99 -124.21,0 -216.12,81.14 -216.12,190.99 0,108.43 92.62,189.55 216.12,189.55 98.37,0 175.19,-47.38 202.47,-120.62l-101.95 0c-18.67,25.84 -53.15,41.65 -96.22,41.65 -60.32,0 -106.27,-34.48 -117.04,-86.16l325.97 0zm-325.97 -50.26c10.77,-50.26 54.57,-84.01 112.73,-84.01 58.88,0 101.24,33.03 111.29,84.01l-224.02 0zm350.39 -154.36l180.94 358.99 112 0 179.49 -358.99 -112 0 -123.48 247.7 -125.65 -247.7 -111.29 0zm483.2 180.2c0,108.43 94.06,189.55 219.72,189.55 127.79,0 220.41,-77.55 220.41,-189.55 0,-114.16 -92.62,-190.99 -220.41,-190.99 -126.37,0 -219.72,81.14 -219.72,190.99zm100.52 0c0,-57.43 50.26,-98.37 119.19,-98.37 71.8,0 119.91,40.94 119.91,98.37 0,56.01 -48.11,96.22 -119.91,96.22 -68.22,0 -119.19,-40.21 -119.19,-96.22zm509.79 -323.82l-100.52 0 0 502.6 100.52 0 0 -502.6zm497.56 348.24c1.44,-7.9 1.44,-16.52 1.44,-24.42 0,-114.16 -91.91,-190.99 -214.68,-190.99 -124.21,0 -216.12,81.14 -216.12,190.99 0,108.43 92.62,189.55 216.12,189.55 98.37,0 175.19,-47.38 202.47,-120.62l-101.95 0c-18.67,25.84 -53.15,41.65 -96.22,41.65 -60.32,0 -106.27,-34.48 -117.04,-86.16l325.97 0zm-325.97 -50.26c10.77,-50.26 54.57,-84.01 112.73,-84.01 58.88,0 101.24,33.03 111.29,84.01l-224.02 0zm396.35 -154.36l0 502.58 100.52 0 0 -188.82c36.61,35.9 88.31,55.99 147.9,55.99 119.91,0 208.93,-81.12 208.93,-190.99 0,-108.41 -89.76,-189.55 -208.93,-189.55 -60.32,0 -112.73,20.82 -149.34,56.72l-9.34 -45.94 -89.74 0zm356.83 178.76c0,58.88 -53.13,101.97 -129.94,101.97 -75.39,0 -126.37,-41.65 -126.37,-101.97 0,-59.59 50.97,-101.24 126.37,-101.24 75.37,0 129.94,42.36 129.94,101.24l0 0zm271.42 12.94c0,-64.63 40.92,-109.87 101.24,-109.87 60.3,0 102.66,45.24 102.66,109.87l0 167.28 100.52 0 0 -167.28c0,-64.63 40.94,-109.87 101.24,-109.87 60.32,0 102.68,45.24 102.68,109.87l0 167.28 100.52 0 0 -167.28c0,-119.91 -73.95,-202.49 -177.34,-202.49 -66.07,0 -119.91,39.49 -147.92,101.97 -28.71,-63.18 -85.43,-101.97 -156.52,-101.97 -53.13,0 -98.37,25.86 -128.52,67.49l-9.34 -56.7 -89.74 0 0 358.99 100.52 0 0 -167.28zm1106.42 12.92c1.44,-7.9 1.44,-16.52 1.44,-24.42 0,-114.16 -91.91,-190.99 -214.68,-190.99 -124.21,0 -216.12,81.14 -216.12,190.99 0,108.43 92.62,189.55 216.12,189.55 98.37,0 175.19,-47.38 202.47,-120.62l-101.95 0c-18.67,25.84 -53.15,41.65 -96.22,41.65 -60.32,0 -106.27,-34.48 -117.04,-86.16l325.97 0zm-325.97 -50.26c10.77,-50.26 54.57,-84.01 112.73,-84.01 58.88,0 101.24,33.03 111.29,84.01l-224.02 0zm496.87 37.34c0,-64.63 43.07,-109.87 106.97,-109.87 63.91,0 109.87,45.24 109.87,109.87l0 167.28 100.51 0 0 -167.28c0,-119.91 -75.39,-202.49 -183.09,-202.49 -55.99,0 -103.39,26.57 -134.98,69.64l-10.06 -58.86 -89.74 0 0 358.99 100.52 0 0 -167.28zm559.3 -99.1l103.39 0 0 -92.6 -103.39 0 0 -80.43 -40.21 0 -133.56 132.83 0 40.21 73.24 0 0 98.37c0,112.73 71.09,178.78 203.91,178.78l0 -93.33c-68.93,0 -103.39,-28.01 -103.39,-85.45l0 -98.37z"/>
  </g>
 </g>
</svg>
